<svg height="297mm" viewBox="0 0 210 297" width="210mm" xmlns="http://www.w3.org/2000/svg"><g stroke-linecap="round" stroke-linejoin="round"><path d="m490.80078 16.982422a26.517884 48.697584 39.741665 0 0 -40.21289 23.951172 26.517884 48.697584 39.741665 0 0 -6.83398 9.351562 26.517884 48.697585 29.561724 0 0 -7.38672-9.466797 26.517884 48.697585 29.561724 0 0 -47.08594 28.978516 26.517884 48.697585 29.561724 0 0 -8.89844 22.460937 26.517884 48.697585 29.561724 0 0 -7.23828-9.064453 26.517884 48.697585 29.561724 0 0 -47.08594 28.978521 26.517884 48.697585 29.561724 0 0 -9.97656 40.4707 26.892567 53.181174 68.511239 0 0 -.52734 1.19336 26.517884 48.697584 9.7203866 0 0 -14.52735-13.60352 26.517884 48.697584 9.7203866 0 0 -34.45507 43.24024 26.517884 48.697584 9.7203866 0 0 9.91015 48.74804 26.517884 48.697584 49.522617 0 0 1.89844 2.91797 26.517884 48.697584 49.522617 0 0 54.15039-11.16406 26.517884 48.697584 49.522617 0 0 23.04102-46.30469 26.892567 53.181174 68.511239 0 0 21.19531-6.41015 26.892567 53.181174 68.511239 0 0 37.85156-35.68165 26.892567 53.181174 68.511239 0 0 22.12695-6.57617 26.892567 53.181174 68.511239 0 0 34.85157-27.38086 22.844803 53.044749 83.722282 0 0 26.89453-.80078 22.844803 53.044749 83.722282 0 0 45.85351-29.720701 22.844803 53.044749 83.722282 0 0 -40.78906-15.910156 26.517884 48.697584 39.741665 0 0 -1.50195-34.457031 26.517884 48.697584 39.741665 0 0 -11.25391-3.75z" fill="#2dd4bf" opacity=".998" stroke-width="6.82748" transform="scale(.26458333)"/><g stroke-width="2.64583"><path d="m45.743806 164.06488 10.570535-7.05615c7.252182-2.3133 14.504364-3.86103 21.756547-3.03954 14.939899 6.44754 29.096312 13.38997 40.233682 24.59694 14.08625 14.17429 24.28029 33.70603 35.50904 51.4569l-15.6386 6.2924-50.013651.10641-27.084978-35.6108z" fill="#2dd4bf" opacity=".998"/><path d="m140.50102 156.51216c15.07515 6.659 30.04192 13.3973 41.24263 22.89193 3.41114 3.96853 7.07102 7.85954 6.88185 12.95027-3.96253 9.60824-8.49493 16.77195-13.30581 22.74109-9.41673 10.29207-22.39933 14.63244-34.4362 20.55129-18.77719 1.93691-37.55436 1.55931-56.331545.38786-16.139551-5.41882-27.405658-10.38894-36.819935-15.18856-13.248558-7.39741-16.708172-16.83058-24.012409-25.46421-2.337797-4.85925-2.802914-10.23496-1.966242-15.96967 4.782024-6.28111 8.408611-6.97657 12.295748-8.93159" fill="none" stroke="#000"/><path d="m133.45755 243.54134c3.48463 6.18522 4.06694 14.99872-.7461 30.90504 13.79732.54105 17.97003 6.49202 25.4238 17.86319l-107.591238.8269c5.150122-12.55831 11.457536-17.10019 24.419132-18.99984 7.578723-12.80879 8.402192-22.3052.581797-32.60194" fill="none" stroke="#000"/><path d="m154.78616 228.72585c-5.83834-4.971-31.93173-43.82542-34.6856-47.84035-3.31073-6.88949-41.057414-26.28702-42.050679-26.74899" fill="none" stroke="#000"/><path d="m113.31568 195.60809c-12.10219-8.07048-23.728722-17.07238-33.369589-29.96233-4.893086-4.62918-14.548583-5.51827-22.485217-7.75723-3.642455.64518-7.315612 1.49702-11.595444 6.43204 8.767435 26.91929 21.567328 50.63982 42.244114 71.83762" fill="none" stroke="#000"/><path d="m107.54623 228.8807c-3.43024-7.20205-8.000722-12.9236-9.101287-23.1505-2.920564-7.17-7.777597-11.66717-12.961043-15.71379" fill="none" stroke="#000"/><path d="m79.771238 149.34104c1.441859-6.93401 4.478938-20.01096 2.787531-30.14172" fill="none" stroke="#000"/><path d="m82.810633 127.61435c-7.315613-6.78153-12.415516-13.80638-24.946209-20.01524-4.967774-1.83308-4.558345-7.22088-5.927053-11.433202 6.624174-9.417866-3.358359-17.292203-8.654421-25.77851 1.709645-12.978507 3.382519-16.966583 14.080571-22.822597-2.965767-13.816735 15.230951-25.11713 24.738616-28.774411 4.358315-1.133779 8.716632-1.604836 13.074947-.03809" fill="none" stroke="#000"/><path d="m131.38127 152.52436c1.01712-7.28534.65387-14.57068-.41902-21.856" fill="none" stroke="#000"/><path d="m146.72076 119.70081c1.56171 14.78093-10.6341 9.76241-23.39016 10.08477-17.41976-1.01462-23.434133-8.54847-34.789078-20.56377" fill="none" stroke="#000"/><path d="m84.78949 97.287707c-21.563158-1.816907-12.309396-22.083884-4.11389-24.696706" fill="none" stroke="#000"/><path d="m64.619975 66.497292c1.566454 5.524494 4.827607 9.574458 9.071523 11.082761" fill="none" stroke="#000"/><path d="m146.63506 104.71366c-6.40017 2.74478-11.88276 1.54658-15.92135.81992" fill="none" stroke="#000"/><path d="m135.31423 72.960491c-5.08419-2.11308-9.65312-.974496-14.22722.131414" fill="none" stroke="#000"/><path d="m144.22386 94.564155c3.0142.806976 7.9164-.747455 12.52834-1.938866-2.20834-11.469491-7.11836-20.847942-12.32456-29.997153" fill="none" stroke="#000"/><path d="m150.30138 55.562138c-.80075-4.415838 1.6281-11.07344 2.85877-16.899346-2.08789-4.491394-4.4804-8.546169-9.2715-9.162942" fill="none" stroke="#000"/><path d="m77.061658 37.57337c-5.080813 6.153078-9.874508 24.114165-2.549276 26.237511 4.642819 1.11212 21.240951-9.60002 21.095134-19.377208-3.401728.227586-6.400027-.170283-10.512332 1.158938-3.219212 1.760353-4.258991 4.631641-5.782307 7.256454" fill="none" stroke="#000"/><path d="m93.676866 22.163891c-6.303855 4.89249-14.9108 21.369766-8.227541 25.044228 4.28705 2.100896 22.826625-4.720557 24.823305-14.292806-3.36913-.522129-6.20775-1.566301-10.511235-1.168932-3.526341 1.013442-5.169081 3.587702-7.229729 5.815673" fill="none" stroke="#000"/><path d="m110.09809 11.150415c-6.47191 4.667923-15.652621 20.832535-9.10262 24.739606 4.21056 2.250265 22.97842-3.915414 25.31027-13.411576-3.34867-.640212-6.14886-1.783502-10.46365-1.537623-3.55978.888883-5.29198 3.403822-7.42965 5.557994" fill="none" stroke="#000"/><path d="m132.82587 5.6737917c.32996-.1367082-1.2446-2.8125899-4.0132-1.4113645-7.73962 3.9171397-17.31591 17.0991758-12.43615 21.7195218 3.61721 3.115826 23.27874 1.199496 27.62899-7.557786-3.12792-1.356363-5.61064-3.083815-9.87493-3.786573-3.66798.08967-5.90779 2.165401-8.46447 3.800491" fill="none" stroke="#000"/></g></g></svg>